<?xml version="1.0" standalone="no"?><!DOCTYPE svg PUBLIC "-//W3C//DTD SVG 1.1//EN"
        "http://www.w3.org/Graphics/SVG/1.1/DTD/svg11.dtd">
<svg t="1501729803391" class="icon" style="" viewBox="0 0 1024 1024" version="1.1" xmlns="http://www.w3.org/2000/svg"
     p-id="2371" xmlns:xlink="http://www.w3.org/1999/xlink" width="128" height="128">
    <defs>
        <style type="text/css"></style>
    </defs>
    <path d="M170.666667 34.133333C114.346667 34.133333 68.266667 80.213333 68.266667 136.533333v716.8c0 56.354133 46.08 102.4 102.4 102.4h358.4V597.333333h-102.4v-126.737066h102.4v-104.96c0-110.7968 62.0544-188.586667 192.8192-188.586667l92.330666 0.1024v133.358933h-61.303466c-50.8928 0-70.2464 38.1952-70.2464 73.6256v86.528h131.4816L785.066667 597.333333h-102.4V955.733333h204.8c56.32 0 102.4-46.045867 102.4-102.4V136.533333c0-56.32-46.08-102.4-102.4-102.4H170.666667z"
          fill="#444A55" p-id="2372"></path>
</svg>